<?xml version="1.0" encoding="UTF-8" standalone="no"?>
<!-- Created with Inkscape (http://www.inkscape.org/) -->

<svg
   width="192"
   height="192"
   viewBox="0 0 192 192.00001"
   version="1.1"
   id="svg1"
   xml:space="preserve"
   xmlns="http://www.w3.org/2000/svg"
   xmlns:svg="http://www.w3.org/2000/svg"><defs
     id="defs1" /><g
     id="layer1-9"
     transform="matrix(1.4946587,0,0,1.4946587,-1692.3886,-54.595722)"><rect
       style="display:inline;fill:#1f2937;fill-opacity:1;stroke-width:7.55906;stroke-linejoin:round"
       id="rect7"
       width="192"
       height="192"
       x="152.33057"
       y="0"
       transform="matrix(0.66904906,0,0,0.66904906,1030.3744,36.527217)" /><g
       id="g6-9-3-3"
       transform="matrix(0.89063768,0,0,0.89063768,1059.8301,-273.73208)"><path
         d="m 111.00005,390.15245 h 34.61484 q 8.48064,0 12.46134,3.89417 3.98071,3.80763 3.98071,11.68251 0,5.19223 -2.24997,8.48064 -2.24996,3.20187 -5.53837,4.49993 7.00951,1.90381 9.51908,9.346 0.86537,2.68265 0.86537,6.23067 0,8.48064 -3.9807,12.46135 -3.98071,3.9807 -12.46135,3.9807 h -37.21095 z m 38.07632,41.53781 q 0,-5.19222 -5.19222,-5.19222 h -17.30742 v 12.11519 h 17.30742 q 5.19222,0 5.19222,-5.19223 z m -2.59611,-24.23039 q 0,-5.19222 -5.19223,-5.19222 h -14.7113 v 12.11519 h 14.7113 q 5.19223,0 5.19223,-5.19222 z"
         id="text4-3-5-6"
         style="font-size:86.5371px;font-family:'Russo One';-inkscape-font-specification:'Russo One, Normal';fill:#ffffff;stroke-width:7.21091"
         aria-label="B" /><g
         id="g5-0-2-6"
         transform="matrix(1.688767,0,0,1.688767,-417.90941,-310.4899)"
         style="fill:#00ffff"><rect
           style="fill:#00ffff;fill-opacity:1;stroke:none;stroke-width:1.62523;stroke-linejoin:round;stroke-dasharray:none;stroke-opacity:1"
           id="rect5-6-9-2"
           width="10.816064"
           height="10.738976"
           x="352.67816"
           y="440.05194" /></g></g></g></svg>
