<?xml version="1.0" encoding="UTF-8" standalone="no"?>
<!-- Created with Inkscape (http://www.inkscape.org/) -->

<svg
   width="512"
   height="511.99997"
   viewBox="0 0 512 512"
   version="1.1"
   id="svg1"
   xml:space="preserve"
   xmlns="http://www.w3.org/2000/svg"
   xmlns:svg="http://www.w3.org/2000/svg"><defs
     id="defs1" /><g
     id="layer1-9-7"
     transform="matrix(4.0532961,0,0,4.0532961,-4593.8486,-152.39361)"><rect
       style="display:inline;fill:#1f2937;fill-opacity:1;stroke-width:4.97311;stroke-linejoin:round"
       id="rect7-0"
       width="126.31682"
       height="126.31682"
       x="1133.3612"
       y="37.597511" /><g
       id="g6-9-3-3-9"
       transform="matrix(0.97825674,0,0,0.97825674,1046.3829,-310.57341)"><path
         d="m 111.00005,390.15245 h 34.61484 q 8.48064,0 12.46134,3.89417 3.98071,3.80763 3.98071,11.68251 0,5.19223 -2.24997,8.48064 -2.24996,3.20187 -5.53837,4.49993 7.00951,1.90381 9.51908,9.346 0.86537,2.68265 0.86537,6.23067 0,8.48064 -3.9807,12.46135 -3.98071,3.9807 -12.46135,3.9807 h -37.21095 z m 38.07632,41.53781 q 0,-5.19222 -5.19222,-5.19222 h -17.30742 v 12.11519 h 17.30742 q 5.19222,0 5.19222,-5.19223 z m -2.59611,-24.23039 q 0,-5.19222 -5.19223,-5.19222 h -14.7113 v 12.11519 h 14.7113 q 5.19223,0 5.19223,-5.19222 z"
         id="text4-3-5-6-2"
         style="font-size:86.5371px;font-family:'Russo One';-inkscape-font-specification:'Russo One, Normal';fill:#ffffff;stroke-width:7.21091"
         aria-label="B" /><g
         id="g5-0-2-6-2"
         transform="matrix(1.688767,0,0,1.688767,-417.90941,-310.4899)"
         style="fill:#00ffff"><rect
           style="display:inline;fill:#00ffff;fill-opacity:1;stroke:none;stroke-width:1.62523;stroke-linejoin:round;stroke-dasharray:none;stroke-opacity:1"
           id="rect5-6-9-2-3"
           width="10.816064"
           height="10.738976"
           x="352.67816"
           y="440.05194" /></g></g></g></svg>
