<?xml version="1.0" encoding="UTF-8" standalone="no"?>
<!-- Created with Inkscape (http://www.inkscape.org/) -->

<svg
   width="33.866665mm"
   height="33.866665mm"
   viewBox="0 0 127.99999 128"
   version="1.1"
   id="svg1"
   xml:space="preserve"
   sodipodi:docname="favicon.svg"
   inkscape:version="1.4.4 (dcaf3e7d9e, 2026-05-05)"
   xmlns:inkscape="http://www.inkscape.org/namespaces/inkscape"
   xmlns:sodipodi="http://sodipodi.sourceforge.net/DTD/sodipodi-0.dtd"
   xmlns="http://www.w3.org/2000/svg"
   xmlns:svg="http://www.w3.org/2000/svg"><sodipodi:namedview
     id="namedview1"
     pagecolor="#505050"
     bordercolor="#eeeeee"
     borderopacity="1"
     inkscape:showpageshadow="0"
     inkscape:pageopacity="0"
     inkscape:pagecheckerboard="0"
     inkscape:deskcolor="#505050"
     inkscape:document-units="mm"
     inkscape:zoom="5.6718753"
     inkscape:cx="63.911842"
     inkscape:cy="63.999997"
     inkscape:window-width="1920"
     inkscape:window-height="934"
     inkscape:window-x="0"
     inkscape:window-y="0"
     inkscape:window-maximized="1"
     inkscape:current-layer="g6-9-3" /><defs
     id="defs1" /><g
     id="layer1"
     transform="translate(-1132.5197,-36.755901)"><g
       id="g6-9-3"
       transform="matrix(1.4408471,0,0,1.4408471,975.38733,-505.07956)"><path
         d="m 111.00005,390.15245 h 34.61484 q 8.48064,0 12.46134,3.89417 3.98071,3.80763 3.98071,11.68251 0,5.19223 -2.24997,8.48064 -2.24996,3.20187 -5.53837,4.49993 7.00951,1.90381 9.51908,9.346 0.86537,2.68265 0.86537,6.23067 0,8.48064 -3.9807,12.46135 -3.98071,3.9807 -12.46135,3.9807 h -37.21095 z m 38.07632,41.53781 q 0,-5.19222 -5.19222,-5.19222 h -17.30742 v 12.11519 h 17.30742 q 5.19222,0 5.19222,-5.19223 z m -2.59611,-24.23039 q 0,-5.19222 -5.19223,-5.19222 h -14.7113 v 12.11519 h 14.7113 q 5.19223,0 5.19223,-5.19222 z"
         id="text4-3-5"
         style="font-size:86.5371px;font-family:'Russo One';-inkscape-font-specification:'Russo One, Normal';fill:#ffffff;stroke-width:7.21091"
         aria-label="B" /><g
         id="g5-0-2"
         transform="matrix(1.688767,0,0,1.688767,-417.90941,-310.4899)"
         style="fill:#00ffff"><rect
           style="fill:#00ffff;fill-opacity:1;stroke:none;stroke-width:1.62523;stroke-linejoin:round;stroke-dasharray:none;stroke-opacity:1"
           id="rect5-6-9"
           width="10.816064"
           height="10.738976"
           x="352.67816"
           y="440.05194" /></g></g></g></svg>
